<mxfile host="app.diagrams.net" agent="Mozilla/5.0 (iPad; CPU OS 17_5 like Mac OS X) AppleWebKit/605.1.15 (KHTML, like Gecko) CriOS/127.0.6533.77 Mobile/15E148 Safari/604.1" version="24.7.6">
  <diagram name="Page-1" id="pQ-K65we4det4AXoAWtI">
    <mxGraphModel>
      <root>
        <mxCell id="0" />
        <mxCell id="1" parent="0" />
      </root>
    </mxGraphModel>
  </diagram>
</mxfile>
